<svg width="59" height="81" viewBox="0 0 59 81" fill="none" xmlns="http://www.w3.org/2000/svg">
<path d="M26.884 78.8617C22.8904 72.9175 19.4818 67.932 16.5759 63.6817C11.3478 56.035 7.74701 50.7683 5.29403 46.5806C3.39199 43.3335 2.1982 40.7638 1.47673 38.2625C0.756298 35.7648 0.5 33.3115 0.5 30.2888C0.5 13.8243 13.4964 0.5 29.5008 0.5C45.5052 0.5 58.5015 13.8243 58.5015 30.2888C58.5015 33.3115 58.2452 35.7648 57.5248 38.2625C56.8033 40.7638 55.6096 43.3335 53.7075 46.5806C51.2545 50.7683 47.6537 56.035 42.4256 63.6818C39.5197 67.932 36.1112 72.9175 32.1176 78.8617C30.8507 80.7397 28.1507 80.7396 26.884 78.8617Z" fill="#039AA6" stroke="white"/>
<path d="M30.1327 27.2771C25.1286 27.2771 18.0336 35.2197 18.0336 40.2333C18.0336 42.4913 19.723 43.8403 22.5544 43.8403C25.6321 43.8403 27.6644 42.2176 30.1327 42.2176C32.6225 42.2176 34.6605 43.8403 37.7111 43.8403C40.5425 43.8403 42.232 42.4913 42.232 40.2333C42.232 35.2197 35.1369 27.2771 30.1327 27.2771ZM20.8517 26.4612C20.1963 24.2194 18.1772 22.7675 16.3422 23.2178C14.5071 23.6681 13.5512 25.8505 14.2065 28.0923C14.8619 30.3342 16.881 31.7861 18.716 31.3357C20.5511 30.8854 21.507 28.7031 20.8517 26.4612ZM26.1904 25.1168C28.1402 24.5901 29.1157 21.8857 28.3695 19.0764C27.6234 16.2671 25.438 14.4173 23.4883 14.944C21.5385 15.4706 20.563 18.1751 21.3092 20.9844C22.0553 23.7937 24.2413 25.6441 26.1904 25.1168ZM43.9227 23.2185C42.0876 22.7682 40.0692 24.22 39.4132 26.4619C38.7578 28.7037 39.7138 30.8861 41.5488 31.3364C43.3839 31.7867 45.4023 30.3348 46.0583 28.093C46.7137 25.8511 45.7577 23.6688 43.9227 23.2185ZM34.0751 25.1168C36.0248 25.6434 38.2102 23.7937 38.9563 20.9844C39.7025 18.1751 38.727 15.4713 36.7772 14.944C34.8275 14.4167 32.6421 16.2671 31.896 19.0764C31.1498 21.8857 32.1253 24.5901 34.0751 25.1168Z" fill="white"/>
</svg>
