<svg width="60" height="44" viewBox="0 0 60 44" fill="none" xmlns="http://www.w3.org/2000/svg">
<path d="M59 40H1C0.447715 40 0 40.4477 0 41V43C0 43.5523 0.447715 44 1 44H59C59.5523 44 60 43.5523 60 43V41C60 40.4477 59.5523 40 59 40Z" fill="white"/>
<path d="M53.68 19.15C53.28 17.31 51.65 16 49.77 16H10.22C8.33999 16 6.70999 17.31 6.30999 19.15L1.98999 39H57.99L53.67 19.15H53.68ZM43 30C43 31.66 41.66 33 40 33C38.34 33 37 31.66 37 30H23C23 31.66 21.66 33 20 33C18.34 33 17 31.66 17 30C17 29.23 17.3 28.53 17.78 28C17.3 27.47 17 26.77 17 26C17 24.34 18.34 23 20 23C21.66 23 23 24.34 23 26H37C37 24.34 38.34 23 40 23C41.66 23 43 24.34 43 26C43 26.77 42.7 27.47 42.22 28C42.7 28.53 43 29.23 43 30Z" fill="white"/>
<path d="M44 10C43.94 10 43.87 10.02 43.81 10.02C43.93 9.7 44 9.36 44 9C44 7.34 42.66 6 41 6C40.2 6 39.47 6.32 38.94 6.83C38.98 6.56 39 6.28 39 6C39 2.69 36.31 0 33 0C29.97 0 27.47 2.25 27.07 5.16C26.73 5.07 26.38 5 26 5C24.65 5 23.46 5.68 22.73 6.7C21.81 5.66 20.49 5 19 5C16.24 5 14 7.24 14 10C14 10.73 14.17 11.43 14.45 12.06C13.06 12.32 12 13.54 12 15H48V14C48 11.79 46.21 10 44 10ZM18 13C17.45 13 17 12.55 17 12C17 11.45 17.45 11 18 11C18.55 11 19 11.45 19 12C19 12.55 18.55 13 18 13ZM18 10C17.45 10 17 9.55 17 9C17 8.45 17.45 8 18 8C18.55 8 19 8.45 19 9C19 9.55 18.55 10 18 10ZM22 11C21.45 11 21 10.55 21 10C21 9.45 21.45 9 22 9C22.55 9 23 9.45 23 10C23 10.55 22.55 11 22 11ZM34 5C33.45 5 33 4.55 33 4C33 3.45 33.45 3 34 3C34.55 3 35 3.45 35 4C35 4.55 34.55 5 34 5ZM36 9C35.45 9 35 8.55 35 8C35 7.45 35.45 7 36 7C36.55 7 37 7.45 37 8C37 8.55 36.55 9 36 9Z" fill="white"/>
</svg>
