<svg width="45" height="34" viewBox="0 0 45 34" fill="none" xmlns="http://www.w3.org/2000/svg">
<path fill-rule="evenodd" clip-rule="evenodd" d="M11.6862 17.1535C14.8446 18.527 17.6267 20.6393 19.7982 23.3125C19.9779 21.3247 20.5486 19.392 21.4777 17.6255C20.4649 15.7206 19.0771 14.0404 17.3977 12.686C15.9367 11.5145 14.4927 10.419 12.6287 9.79403C10.5668 9.13136 8.39345 8.88625 6.23571 9.07303C4.46884 9.25298 2.73425 9.67006 1.07871 10.313C0.615211 10.492 0.162711 10.6705 0.0927112 10.8305C-0.0186845 11.0804 -0.0301305 11.3635 0.0607257 11.6215C0.151582 11.8796 0.337838 12.0931 0.581211 12.218C1.05771 12.5285 1.85621 12.765 2.57021 13.2415C3.29747 13.7797 3.93329 14.4316 4.45321 15.172C5.87221 16.993 6.32071 18.055 7.27371 20.299C7.79656 21.6966 8.47145 23.0324 9.28621 24.2825C10.4066 25.7376 11.8411 26.9209 13.4827 27.744C15.52 28.6801 17.7551 29.1042 19.9937 28.9795C19.8939 28.5437 19.8161 28.1032 19.7607 27.6595C19.6615 26.8157 19.6319 25.9652 19.6722 25.1165C18.3368 23.4554 16.8794 21.8961 15.3122 20.4515C13.9832 19.2645 12.7377 18.4125 11.6887 17.1515L11.6862 17.1535ZM35.3362 16.3475C33.2617 17.966 31.8362 19.185 30.4417 20.4765C27.7107 23 25.1437 25.376 22.0937 31.3885C21.2055 29.3973 20.8072 27.2223 20.9322 25.0455C20.9699 23.3575 21.2538 21.6841 21.7747 20.078C22.3361 18.5452 23.1286 17.1072 24.1247 15.814C25.025 14.5988 26.1462 13.5641 27.4297 12.764C29.8797 11.154 32.6677 9.91403 34.8992 8.02103C35.8022 7.23701 36.6525 6.39436 37.4447 5.49853C38.1919 4.63554 38.7232 3.60726 38.9947 2.49853C39.2502 1.67903 39.4947 0.798529 40.3602 0.513529C40.5441 0.446797 40.7413 0.425585 40.9352 0.451707C41.129 0.47783 41.3136 0.550509 41.4732 0.663529C42.0407 1.29703 43.1232 3.69103 43.6012 4.97303C44.4999 7.31242 44.9715 9.79407 44.9937 12.3C45.1114 15.976 44.0255 19.5898 41.9012 22.592C40.7404 21.4979 39.2439 20.8281 37.6545 20.6912C36.0652 20.5544 34.4762 20.9586 33.1455 21.8382C31.8147 22.7178 30.8201 24.0213 30.3232 25.5371C29.8262 27.053 29.856 28.6922 30.4077 30.189C28.0493 31.003 25.6293 31.6265 23.1712 32.0535C26.1437 26.167 28.6397 23.8575 31.2937 21.4C32.8813 19.9243 34.2428 18.2227 35.3342 16.35L35.3362 16.3475ZM39.7087 25.3435L36.2487 28.8035L34.3937 26.95C34.2742 26.836 34.1148 26.7732 33.9496 26.7752C33.7844 26.7771 33.6265 26.8437 33.5097 26.9605C33.3929 27.0774 33.3265 27.2353 33.3246 27.4005C33.3227 27.5657 33.3856 27.7251 33.4997 27.8445L35.7997 30.1445C35.8584 30.2033 35.9282 30.2499 36.0049 30.2816C36.0816 30.3134 36.1639 30.3298 36.247 30.3298C36.33 30.3298 36.4123 30.3134 36.489 30.2816C36.5657 30.2499 36.6355 30.2033 36.6942 30.1445L40.6012 26.237C40.6622 26.1788 40.7109 26.109 40.7444 26.0317C40.778 25.9544 40.7958 25.8711 40.7968 25.7868C40.7977 25.7025 40.7818 25.6189 40.75 25.5408C40.7182 25.4628 40.6711 25.3919 40.6114 25.3323C40.5518 25.2727 40.4809 25.2256 40.4028 25.1939C40.3247 25.1621 40.2411 25.1462 40.1568 25.1472C40.0725 25.1482 39.9893 25.166 39.912 25.1997C39.8347 25.2333 39.7649 25.282 39.7067 25.343L39.7087 25.3435ZM37.0512 21.934C35.902 21.934 34.7786 22.2748 33.823 22.9133C32.8675 23.5518 32.1227 24.4593 31.683 25.5211C31.2432 26.5828 31.1282 27.7511 31.3524 28.8783C31.5766 30.0054 32.1301 31.0408 32.9427 31.8533C33.7554 32.6659 34.7908 33.2193 35.9179 33.4434C37.0451 33.6676 38.2134 33.5525 39.2751 33.1126C40.3369 32.6727 41.2443 31.9279 41.8827 30.9723C42.5211 30.0167 42.8618 28.8933 42.8617 27.744C42.8617 26.9808 42.7113 26.2251 42.4192 25.5201C42.1271 24.815 41.6989 24.1744 41.1591 23.6349C40.6193 23.0953 39.9786 22.6674 39.2734 22.3756C38.5682 22.0837 37.8124 21.9337 37.0492 21.934H37.0512Z" fill="white"/>
</svg>
