<svg width="50" height="50" viewBox="0 0 50 50" fill="none" xmlns="http://www.w3.org/2000/svg">
<path d="M48.9396 24.6375L38.0021 20.9167C37.6771 20.8042 37.3229 20.8042 36.9979 20.9167L26.0604 24.6375C25.425 24.8521 25 25.4458 25 26.1167V34.4875C25 44.7042 36.4042 49.6708 36.8896 49.8771C37.2813 50.0417 37.7187 50.0417 38.1104 49.8771C38.5958 49.6687 50 44.7042 50 34.4875V26.1167C50 25.4458 49.575 24.8521 48.9396 24.6375ZM44.3458 32.5375L38.6167 39.8292C37.8875 40.7604 36.5208 40.8958 35.6229 40.125L31.9771 37C31.1021 36.2521 31 34.9354 31.7521 34.0625C32.5 33.1896 33.8167 33.0896 34.6875 33.8375L36.6833 35.5479L41.0687 29.9667C41.7792 29.0625 43.0875 28.9021 43.9938 29.6167C44.9 30.3229 45.0583 31.6333 44.3458 32.5375Z" fill="white"/>
<path d="M32.3955 6.0625H30.8747C29.6247 6.0625 28.4372 5.45833 27.6872 4.47917L26.7705 3.25C25.2497 1.20833 22.8122 0 20.2705 0H14.208C9.708 0 6.06217 3.64583 6.06217 8.14583V13.5417C6.06217 20.8542 4.22883 27.4792 0.270502 34.375C-0.291998 35.375 0.0413352 36.6458 1.04134 37.2292C2.06217 37.7917 3.31217 37.4583 3.8955 36.4583C7.68717 29.7917 9.708 23.375 10.1455 16.4375L11.5205 19.3333C11.9788 20.25 12.9163 20.8333 13.9163 20.8333C15.2913 20.8333 16.4372 19.7917 16.5622 18.4167L17.8955 4.16667H20.2705C21.5205 4.16667 22.708 4.77083 23.4372 5.75L24.3538 6.97917C25.8955 9 28.3122 10.2292 30.8747 10.2292H32.3955C32.9163 10.2292 33.333 10.6458 33.333 11.1667V12.3333C33.333 12.6875 33.1247 13.0208 32.8122 13.1875L24.8538 17.1458C22.833 18.1667 21.7497 20.3958 22.1038 22.5625C22.7497 21.7083 23.6455 21.0625 24.7288 20.6875L32.0622 18.1875H32.083L34.6663 16.8958C36.4163 16.0417 37.4997 14.2708 37.4997 12.3333V11.1667C37.4997 8.35417 35.208 6.0625 32.3955 6.0625Z" fill="white"/>
</svg>
