<svg width="56" height="55" viewBox="0 0 56 55" fill="none" xmlns="http://www.w3.org/2000/svg">
<path d="M39.3692 18.9807C39.1262 18.365 38.7541 17.8059 38.2769 17.3394C37.7997 16.873 37.2279 16.5095 36.5983 16.2724C35.7315 15.9583 34.816 15.7923 33.8917 15.7816C32.3546 15.7131 31.8938 15.696 28 15.696C24.1063 15.696 23.6454 15.7131 22.1083 15.7816C21.1831 15.7919 20.2665 15.958 19.3988 16.2724C18.7695 16.5102 18.1981 16.8742 17.7214 17.3412C17.2446 17.8081 16.8731 18.3676 16.6308 18.9835C16.3098 19.8317 16.1401 20.7275 16.1292 21.6319C16.0592 23.1358 16.0417 23.5867 16.0417 27.3966C16.0417 31.2064 16.0592 31.6573 16.1292 33.1613C16.1398 34.0666 16.3095 34.9634 16.6308 35.8125C16.8738 36.4282 17.2459 36.9873 17.7231 37.4537C18.2004 37.9202 18.7721 38.2837 19.4017 38.5207C20.2685 38.8349 21.184 39.0009 22.1083 39.0116C23.6454 39.0801 24.1063 39.0944 28 39.0944C31.8938 39.0944 32.3546 39.0801 33.8917 39.0087C34.8168 38.9993 35.7333 38.8342 36.6013 38.5207C37.2305 38.283 37.8019 37.9189 38.2787 37.452C38.7554 36.9851 39.1269 36.4256 39.3692 35.8096C39.6902 34.9615 39.8599 34.0657 39.8708 33.1613C39.9408 31.6573 39.9554 31.2064 39.9554 27.3966C39.9554 23.5867 39.9408 23.1358 39.8679 21.6319C39.8583 20.7267 39.6896 19.8299 39.3692 18.9807ZM28 34.7252C26.5186 34.7252 25.0705 34.2954 23.8388 33.4901C22.6071 32.6848 21.6471 31.5402 21.0802 30.2011C20.5133 28.862 20.3649 27.3885 20.6539 25.9668C20.9429 24.5452 21.6563 23.2394 22.7038 22.2145C23.7513 21.1896 25.0859 20.4916 26.5388 20.2088C27.9917 19.926 29.4977 20.0712 30.8663 20.6259C32.2349 21.1805 33.4047 22.1199 34.2277 23.325C35.0507 24.5302 35.49 25.9471 35.49 27.3966C35.49 29.3402 34.7009 31.2043 33.2962 32.5787C31.8916 33.9531 29.9865 34.7252 28 34.7252ZM35.7846 21.4921C35.4385 21.4921 35.1001 21.3916 34.8123 21.2035C34.5246 21.0153 34.3003 20.7479 34.1678 20.435C34.0353 20.1221 34.0007 19.7779 34.0682 19.4457C34.1357 19.1136 34.3024 18.8085 34.5472 18.569C34.7919 18.3295 35.1037 18.1664 35.4432 18.1004C35.7826 18.0343 36.1345 18.0682 36.4543 18.1978C36.7741 18.3274 37.0474 18.5469 37.2397 18.8285C37.432 19.1101 37.5346 19.4411 37.5346 19.7798C37.5346 20.2339 37.3502 20.6694 37.022 20.9905C36.6938 21.3116 36.2487 21.4921 35.7846 21.4921ZM32.8621 27.3966C32.8621 28.3375 32.5769 29.2573 32.0427 30.0396C31.5084 30.8219 30.7491 31.4317 29.8606 31.7918C28.9722 32.1518 27.9946 32.246 27.0515 32.0625C26.1083 31.8789 25.242 31.4258 24.562 30.7605C23.882 30.0952 23.419 29.2475 23.2313 28.3247C23.0437 27.4019 23.14 26.4453 23.508 25.576C23.876 24.7068 24.4992 23.9638 25.2988 23.441C26.0983 22.9183 27.0384 22.6393 28 22.6393C29.2895 22.6393 30.5262 23.1405 31.438 24.0327C32.3498 24.9248 32.8621 26.1349 32.8621 27.3966ZM28 0C22.4621 0 17.0486 1.60678 12.444 4.61716C7.83947 7.62753 4.25064 11.9063 2.13139 16.9124C0.0121319 21.9184 -0.542361 27.427 0.538025 32.7414C1.61841 38.0558 4.28515 42.9374 8.20102 46.7689C12.1169 50.6004 17.106 53.2096 22.5375 54.2668C27.9689 55.3239 33.5988 54.7813 38.7151 52.7077C43.8315 50.6341 48.2045 47.1227 51.2811 42.6173C54.3578 38.112 56 32.8151 56 27.3966C56 20.1306 53.05 13.1621 47.799 8.02427C42.548 2.88642 35.4261 0 28 0ZM42.4958 33.2783C42.4711 34.4624 42.2414 35.6339 41.8163 36.7428C41.4417 37.6905 40.8689 38.5512 40.1346 39.2696C39.4003 39.9881 38.5207 40.5486 37.5521 40.9151C36.4196 41.3307 35.2234 41.5555 34.0142 41.58C32.4567 41.6485 31.9608 41.6656 28 41.6656C24.0392 41.6656 23.5433 41.6485 21.9858 41.58C20.7766 41.5555 19.5804 41.3307 18.4479 40.9151C17.4794 40.5486 16.5997 39.9881 15.8654 39.2696C15.1311 38.5512 14.5583 37.6905 14.1838 36.7428C13.759 35.6348 13.5292 34.4643 13.5042 33.2811C13.4342 31.7572 13.4167 31.2721 13.4167 27.3966C13.4167 23.5211 13.4342 23.036 13.5042 21.512C13.5283 20.329 13.7571 19.1586 14.1808 18.0504C14.5554 17.1019 15.1285 16.2405 15.8633 15.5215C16.5982 14.8024 17.4785 14.2417 18.4479 13.8752C19.5805 13.4606 20.7768 13.2367 21.9858 13.2131C23.5433 13.1447 24.0392 13.1275 28 13.1275C31.9608 13.1275 32.4567 13.1447 34.0142 13.2131C35.2232 13.2367 36.4195 13.4606 37.5521 13.8752C38.5209 14.242 39.4007 14.8029 40.1351 15.5219C40.8694 16.2409 41.442 17.1021 41.8163 18.0504C42.241 19.1584 42.4708 20.3289 42.4958 21.512C42.5658 23.036 42.5833 23.5211 42.5833 27.3966C42.5833 31.2721 42.5658 31.7544 42.4958 33.2783Z" fill="#2AD571"/>
</svg>
