<svg width="1084" height="364" viewBox="0 0 1084 364" fill="none" xmlns="http://www.w3.org/2000/svg">
<path d="M285.155 290.967C278.302 276.954 274.88 259.365 274.88 238.186C274.88 230.407 275.5 221.065 276.746 210.162C277.988 199.265 280.404 188.054 283.987 176.531C287.563 165.014 292.547 153.571 298.932 142.199C305.314 130.835 313.648 120.641 323.924 111.606C334.2 102.578 346.648 95.2595 361.292 89.6515C375.922 84.0488 393.359 81.2435 413.606 81.2435C429.79 81.2435 443.499 83.1128 454.706 86.8502C463.883 89.9088 471.571 93.8728 477.828 98.7021C475.838 96.1248 473.611 93.6742 471.132 91.3622C464.279 84.9862 455.25 79.9195 444.039 76.1835C432.832 72.4462 419.123 70.5768 402.939 70.5768C382.692 70.5768 365.255 73.3821 350.626 78.9848C335.982 84.5928 323.534 91.9115 313.258 100.939C302.982 109.974 294.647 120.169 288.266 131.533C281.88 142.905 276.896 154.347 273.32 165.865C269.738 177.387 267.322 188.598 266.079 199.495C264.834 210.398 264.214 219.741 264.214 227.519C264.214 248.698 267.635 266.287 274.488 280.301C280.892 293.407 289.03 304.033 298.844 312.234C293.65 306.051 289.071 298.983 285.155 290.967Z" fill="white"/>
<path d="M523.835 118.611C524.143 114.569 524.689 110.599 525.471 106.703C526.245 102.811 527.807 99.308 530.14 96.1934C532.479 93.0827 535.819 90.5854 540.184 88.7174C544.541 86.8507 550.297 85.916 557.465 85.916C559.64 80.3107 562.135 73.62 564.937 65.832C567.741 58.052 570.543 50.496 573.347 43.176C576.149 35.8627 578.872 29.7107 581.519 24.7267C584.163 19.7494 586.579 17.2547 588.757 17.2547H602.304C609.339 17.2547 615.191 18.4374 619.881 20.78C619.507 20.092 619.14 19.3987 618.731 18.732C613.745 10.6374 604.716 6.58804 591.637 6.58804H578.091C575.912 6.58804 573.496 9.0827 570.852 14.06C568.205 19.044 565.483 25.196 562.68 32.5094C559.876 39.8294 557.075 47.3854 554.271 55.1654C551.468 62.9534 548.973 69.644 546.799 75.2494C539.631 75.2494 533.875 76.184 529.517 78.0507C525.152 79.9187 521.812 82.416 519.473 85.5267C517.14 88.6414 515.579 92.144 514.804 96.036C514.023 99.932 513.476 103.903 513.168 107.944L511.768 131.767C511.768 133.948 512 135.583 512.469 136.671C512.933 137.767 514.411 138.307 516.905 138.307H522.677L523.835 118.611Z" fill="white"/>
<path d="M10.9765 305.915C10.9765 301.871 11.2112 295.405 11.6739 286.529C12.1445 277.657 12.8432 267.146 13.7765 255.003C14.7139 242.858 15.7205 229.623 16.8152 215.298C17.9005 200.981 19.0685 186.341 20.3192 171.393C21.8712 153.023 23.1925 137.222 24.2885 123.985C25.3765 110.753 26.2299 99.3874 26.8579 89.8874C27.4779 80.39 28.0232 72.45 28.4925 66.0633C28.9592 59.686 29.2659 54.0807 29.4272 49.25C29.5792 44.426 29.7312 39.9874 29.8939 35.9367C30.0485 31.8927 30.1245 27.5314 30.1245 22.8594C30.1245 20.37 30.8992 18.5834 32.4605 17.4874C34.0165 16.3994 35.5699 15.8514 37.1339 15.8514C45.2285 15.8514 54.1019 15.6167 63.7579 15.1527C73.4059 14.6847 83.0619 14.1434 92.7192 13.5154C102.366 12.898 111.709 12.3487 120.742 11.8847C129.771 11.414 137.71 11.182 144.562 11.182C164.487 11.182 181.615 13.598 195.942 18.422C207.054 22.17 216.509 27.246 224.343 33.614C222.979 31.9514 221.573 30.326 220.075 28.7754C211.201 19.594 199.595 12.586 185.275 7.75537C170.949 2.93137 153.821 0.51536 133.895 0.51536C127.043 0.51536 119.105 0.747371 110.075 1.21804C101.042 1.68204 91.6992 2.23136 82.0525 2.84869C72.3952 3.47669 62.7392 4.01802 53.0912 4.48602C43.4352 4.95002 34.5619 5.18469 26.4672 5.18469C24.9032 5.18469 23.3499 5.7327 21.7939 6.8207C20.2325 7.9167 19.4579 9.70335 19.4579 12.1927C19.4579 16.8647 19.3819 21.226 19.2259 25.27C19.0645 29.3207 18.9125 33.7594 18.7605 38.5834C18.5992 43.414 18.2925 49.0194 17.8259 55.3967C17.3565 61.7834 16.8112 69.7234 16.1912 79.2207C15.5632 88.7207 14.7099 100.086 13.6219 113.318C12.5259 126.555 11.2045 142.357 9.65254 160.726C8.40188 175.674 7.23388 190.314 6.14854 204.631C5.05388 218.957 4.04721 232.191 3.10988 244.337C2.17654 256.479 1.47788 266.99 1.00721 275.862C0.544542 284.738 0.309875 291.205 0.309875 295.249C0.309875 308.951 3.96721 319.301 11.2832 326.307C12.8405 327.798 14.6485 329.121 16.6765 330.295C12.8845 323.901 10.9765 315.782 10.9765 305.915Z" fill="white"/>
<path d="M709.801 306.659C709.801 284.113 728.078 265.836 750.623 265.836C759.514 265.836 767.734 268.687 774.438 273.512C767.026 263.213 754.945 256.503 741.29 256.503C718.745 256.503 700.467 274.78 700.467 297.325C700.467 310.983 707.179 323.064 717.477 330.475C712.651 323.771 709.801 315.551 709.801 306.659Z" fill="white"/>
<path d="M411.055 159.367C404.2 159.367 398.365 161.315 393.54 165.206C388.709 169.105 384.668 174.009 381.396 179.919C378.127 185.839 375.632 192.378 373.923 199.538C372.208 206.705 370.888 213.55 369.952 220.089C389.255 219.785 404.903 216.514 416.896 210.281C428.879 204.055 434.877 195.179 434.877 183.657C434.877 177.431 432.929 171.827 429.04 166.841C425.143 161.863 419.149 159.367 411.055 159.367ZM402.183 363.485C388.475 363.485 374.857 361.771 361.311 358.345C347.765 354.923 335.623 349.006 324.877 340.597C314.136 332.191 305.333 320.979 298.488 306.967C291.636 292.954 288.213 275.365 288.213 254.186C288.213 246.407 288.833 237.065 290.08 226.162C291.321 215.265 293.737 204.055 297.32 192.531C300.896 181.014 305.88 169.571 312.265 158.199C318.647 146.837 326.981 136.641 337.257 127.606C347.533 118.578 359.981 111.259 374.625 105.651C389.255 100.049 406.693 97.2432 426.939 97.2432C443.123 97.2432 456.832 99.1139 468.039 102.85C479.249 106.586 488.279 111.653 495.133 118.029C501.976 124.417 506.961 131.81 510.081 140.218C513.187 148.625 514.749 157.661 514.749 167.309C514.749 181.635 511.864 193.781 506.107 203.741C500.345 213.709 492.869 222.038 483.689 228.73C474.501 235.431 464.305 240.641 453.093 244.381C441.884 248.114 430.828 250.995 419.929 253.018C409.027 255.049 398.985 256.287 389.804 256.757C380.617 257.221 373.529 257.455 368.552 257.455C368.552 263.375 369.407 269.214 371.12 274.971C372.828 280.735 375.396 285.793 378.828 290.153C382.249 294.519 386.769 298.091 392.372 300.897C397.979 303.698 404.823 305.101 412.924 305.101C421.019 305.101 427.323 303.777 431.841 301.129C436.352 298.485 440.015 295.523 442.817 292.254C445.62 288.985 448.027 286.029 450.056 283.381C452.079 280.735 454.803 279.41 458.229 279.41C459.785 279.41 462.509 279.803 466.407 280.578C470.296 281.358 474.264 282.991 478.315 285.482C482.36 287.977 485.943 291.399 489.06 295.758C492.168 300.122 493.729 305.726 493.729 312.573C493.729 321.61 490.929 329.389 485.323 335.927C479.72 342.466 472.479 347.765 463.604 351.809C454.731 355.859 444.84 358.815 433.945 360.685C423.041 362.549 412.46 363.485 402.183 363.485Z" fill="white"/>
<path d="M643.194 164.974C642.261 176.811 641.249 188.489 640.159 200.003C639.065 211.527 638.057 222.426 637.125 232.705C636.189 242.974 635.493 252.165 635.023 260.258C634.555 268.359 634.325 274.585 634.325 278.941C634.325 287.041 635.258 292.418 637.125 295.057C638.993 297.707 642.103 299.027 646.467 299.027C649.891 299.027 652.845 298.405 655.342 297.158C657.829 295.919 660.167 294.519 662.349 292.954C664.523 291.399 666.473 289.999 668.183 288.751C669.894 287.51 671.843 286.883 674.025 286.883C676.199 286.883 678.226 288.13 680.097 290.621C681.966 293.115 682.899 298.875 682.899 307.899C682.899 325.03 678.226 338.574 668.886 348.539C659.546 358.509 643.502 363.485 620.777 363.485C598.358 363.485 581.777 358.273 571.033 347.837C560.29 337.409 554.917 321.447 554.917 299.961C554.917 295.287 555.151 289.767 555.617 283.381C556.085 277.002 556.786 268.665 557.719 258.39C558.654 248.113 559.821 235.503 561.223 220.557C562.623 205.611 564.098 187.086 565.659 164.974H540.905C538.41 164.974 536.934 164.434 536.469 163.337C535.999 162.25 535.769 160.614 535.769 158.434L537.167 134.611C537.477 130.569 538.022 126.599 538.803 122.703C539.578 118.811 541.139 115.309 543.473 112.193C545.813 109.082 549.153 106.586 553.517 104.718C557.875 102.85 563.63 101.917 570.798 101.917C572.974 96.3114 575.467 89.6194 578.271 81.8327C581.074 74.0527 583.877 66.4967 586.679 59.1754C589.483 51.8634 592.206 45.7114 594.851 40.726C597.497 35.75 599.911 33.2554 602.091 33.2554H615.637C628.717 33.2554 637.745 37.3034 642.73 45.398C647.706 53.502 650.203 63.1487 650.203 74.3594C650.203 80.59 649.737 89.7714 648.803 101.917H697.845C702.823 101.917 705.318 104.099 705.318 108.454L703.45 133.678C702.823 143.019 700.253 150.573 695.743 156.33C691.226 162.097 681.966 164.974 667.951 164.974H643.194Z" fill="white"/>
<path d="M542.284 267.38C542.752 261.003 543.453 252.664 544.385 242.39C545.32 232.114 546.486 219.504 547.89 204.556C548.529 197.74 549.182 190.17 549.854 181.863H540.905C539.864 181.863 539.01 181.764 538.322 181.575C537.952 185.908 537.586 190.032 537.224 193.89C535.82 208.838 534.653 221.447 533.718 231.723C532.786 241.998 532.085 250.336 531.617 256.714C531.15 263.1 530.917 268.622 530.917 273.295C530.917 294.782 536.29 310.742 547.033 321.171C548.661 322.751 550.44 324.199 552.337 325.54C545.172 315.367 541.584 301.51 541.584 283.962C541.584 279.288 541.817 273.767 542.284 267.38Z" fill="white"/>
<path d="M148.555 97.2435C144.504 97.2435 139.987 97.4781 135.009 97.9448C130.025 98.4115 124.733 98.9608 119.128 99.5795C118.503 112.659 117.727 128.538 116.795 147.222C115.86 165.905 114.609 185.526 113.057 206.077C117.727 207.325 122.317 208.178 126.835 208.646C131.344 209.111 135.477 209.346 139.211 209.346C150.109 209.346 158.904 206.775 165.604 201.639C172.296 196.499 177.515 190.194 181.249 182.721C184.987 175.249 187.476 167.466 188.724 159.367C189.965 151.271 190.592 144.27 190.592 138.349C190.592 124.963 187.555 114.761 181.485 107.753C175.413 100.749 164.435 97.2435 148.555 97.2435ZM72.888 363.485C55.1373 363.485 42.5987 359.983 35.284 352.974C27.968 345.967 24.3093 335.618 24.3093 321.915C24.3093 317.871 24.544 311.405 25.008 302.529C25.4773 293.657 26.1773 283.146 27.1093 271.003C28.0467 258.858 29.0533 245.623 30.148 231.298C31.2347 216.981 32.4027 202.341 33.652 187.393C35.204 169.023 36.5267 153.222 37.6227 139.985C38.7093 126.753 39.564 115.387 40.192 105.886C40.8107 96.3901 41.3573 88.4501 41.8253 82.0635C42.2933 75.6861 42.5987 70.0808 42.76 65.2501C42.9133 60.4261 43.0653 55.9875 43.2267 51.9368C43.3813 47.8928 43.4587 43.5315 43.4587 38.8595C43.4587 36.3701 44.2333 34.5835 45.7947 33.4875C47.3507 32.3995 48.904 31.8515 50.468 31.8515C58.5627 31.8515 67.4347 31.6168 77.0907 31.1528C86.74 30.6848 96.396 30.1435 106.052 29.5155C115.699 28.8981 125.041 28.3488 134.076 27.8835C143.104 27.4141 151.043 27.1821 157.896 27.1821C177.82 27.1821 194.948 29.5981 209.275 34.4221C223.595 39.2528 235.2 46.2608 244.076 55.4408C252.948 64.6288 259.491 75.7581 263.691 88.8368C267.893 101.917 269.997 116.862 269.997 133.677C269.997 152.053 267.583 169.723 262.757 186.693C257.927 203.666 250.38 218.689 240.104 231.765C229.828 244.843 216.588 255.279 200.401 263.061C184.205 270.847 164.903 274.737 142.481 274.737C129.091 274.737 117.727 273.337 108.385 270.534L101.845 356.475C101.533 358.977 100.912 360.763 99.9787 361.85C99.0413 362.943 97.176 363.485 94.372 363.485H72.888Z" fill="white"/>
<path d="M804.78 322.659C804.78 345.207 786.503 363.484 763.957 363.484C741.412 363.484 723.135 345.207 723.135 322.659C723.135 300.113 741.412 281.836 763.957 281.836C786.503 281.836 804.78 300.113 804.78 322.659Z" fill="white"/>
<path d="M1075.74 206.544C1074.81 215.886 1073.41 226.24 1071.54 237.606C1069.67 248.972 1066.79 260.491 1062.9 272.172C1059 283.848 1053.79 295.135 1047.25 306.034C1040.71 316.935 1032.31 326.667 1022.03 335.226C1011.75 343.794 999.375 350.64 984.895 355.778C970.418 360.916 953.207 363.484 933.283 363.484C913.038 363.484 895.755 360.599 881.435 354.844C867.109 349.084 855.434 341.146 846.406 331.022C837.371 320.906 830.831 309.151 826.787 295.758C822.737 282.374 820.717 268.048 820.717 252.786C820.717 245.938 821.023 236.67 821.649 224.994C822.269 213.318 823.125 200.632 824.218 186.926C825.305 173.228 826.474 158.98 827.721 144.187C828.962 129.403 830.13 115.308 831.225 101.916C832.311 88.5309 833.326 76.4603 834.261 65.7176C835.197 54.9736 835.815 46.7989 836.13 41.1936C836.435 35.2829 837.215 31.4643 838.463 29.7509C839.705 28.0416 841.574 27.1829 844.069 27.1829H869.761C888.75 27.1829 901.521 31.2336 908.062 39.3269C914.599 47.4283 917.869 59.4096 917.869 75.2936C917.869 76.2283 917.637 80.3563 917.169 87.6696C916.701 94.991 916.075 103.946 915.299 114.527C914.519 125.118 913.739 136.64 912.966 149.092C912.186 161.55 911.402 173.382 910.63 184.59C909.846 195.802 909.227 205.611 908.761 214.016C908.294 222.426 908.062 228.031 908.062 230.832C908.062 236.131 908.294 242.202 908.761 249.047C909.227 255.9 910.469 262.439 912.497 268.664C914.519 274.902 917.789 280.108 922.306 284.311C926.818 288.516 933.283 290.622 941.69 290.622C952.273 290.622 960.914 287.04 967.614 279.876C974.307 272.715 979.442 264.156 983.026 254.186C986.603 244.224 989.099 234.104 990.502 223.826C991.902 213.55 992.909 205.143 993.537 198.602C994.778 182.722 996.105 166.374 997.507 149.56C998.909 132.743 1000.15 117.023 1001.24 102.383C1002.33 87.7496 1003.18 74.9869 1003.81 64.0816C1004.43 53.1856 1004.75 45.7109 1004.75 41.6616C1004.75 35.4363 1005.22 31.4643 1006.15 29.7509C1007.08 28.0416 1009.1 27.1829 1012.22 27.1829H1037.91C1048.49 27.1829 1056.83 28.1163 1062.9 29.9856C1068.97 31.8509 1073.56 34.3483 1076.68 37.4589C1079.79 40.5736 1081.74 44.1589 1082.52 48.2003C1083.29 52.2509 1083.68 56.455 1083.68 60.8136C1083.68 64.863 1083.45 72.4896 1082.98 83.7003C1082.52 94.9096 1081.97 107.68 1081.35 122.002C1080.72 136.327 1079.95 151.122 1079.02 166.374C1078.08 181.635 1076.98 195.026 1075.74 206.544Z" fill="white"/>
<path d="M813.454 279.758C809.404 266.374 807.384 252.049 807.384 236.786C807.384 229.938 807.69 220.67 808.316 208.994C808.934 197.318 809.792 184.633 810.885 170.926C811.972 157.229 813.141 142.981 814.388 128.187C815.629 113.402 816.797 99.3086 817.892 85.9166C818.978 72.5312 819.993 60.4592 820.926 49.7179C821.864 38.9739 822.482 30.7992 822.797 25.1939C823.101 19.2832 823.882 15.4646 825.13 13.7512C826.372 12.0419 828.241 11.1819 830.736 11.1819H856.426C869.681 11.1819 879.894 13.1619 887.086 17.1059C886.169 15.5152 885.166 14.0272 884.062 12.6606C877.521 4.5659 864.75 0.515227 845.76 0.515227H820.069C817.574 0.515227 815.704 1.37523 814.464 3.08456C813.216 4.7979 812.434 8.61656 812.13 14.5272C811.816 20.1326 811.197 28.3072 810.26 39.0512C809.326 49.7926 808.312 61.8646 807.225 75.2499C806.13 88.6419 804.962 102.735 803.721 117.521C802.474 132.314 801.305 146.562 800.218 160.259C799.125 173.966 798.268 186.651 797.649 198.327C797.024 210.003 796.717 219.271 796.717 226.119C796.717 241.382 798.737 255.707 802.788 269.091C806.832 282.485 813.372 294.238 822.406 304.355C825.081 307.354 828.017 310.139 831.156 312.755C823.122 303.157 817.204 292.171 813.454 279.758Z" fill="white"/>
</svg>
