<svg width="56" height="59" viewBox="0 0 56 59" fill="none" xmlns="http://www.w3.org/2000/svg">
<path d="M54.083 55.9366H1.13174C0.509283 55.9366 0 56.4458 0 57.0683C0 57.6908 0.509283 58.2 1.13174 58.2H54.083C54.7055 58.2 55.2147 57.6908 55.2147 57.0683C55.2147 56.4458 54.7055 55.9366 54.083 55.9366Z" fill="white"/>
<path d="M2.41934 39.6112C1.79688 39.6112 1.2876 40.1205 1.2876 40.743V52.3716C1.2876 52.9941 1.79688 53.5033 2.41934 53.5033H10.4264C11.0489 53.5033 11.5581 52.9941 11.5581 52.3716V40.743C11.5581 40.1205 11.0489 39.6112 10.4264 39.6112H2.41934ZM9.29465 51.254H3.55108V41.8889H9.29465V51.254Z" fill="white"/>
<path d="M15.9008 35.735C15.2783 35.735 14.769 36.2443 14.769 36.8668V52.3716C14.769 52.994 15.2783 53.5033 15.9008 53.5033H23.9078C24.5303 53.5033 25.0396 52.994 25.0396 52.3716V36.8668C25.0396 36.2443 24.5303 35.735 23.9078 35.735H15.9008ZM22.7761 51.254H17.0325V38.0126H22.7761V51.254Z" fill="white"/>
<path d="M29.9345 29.4822C29.312 29.4822 28.8027 29.9915 28.8027 30.6139V52.3858C28.8027 53.0082 29.312 53.5175 29.9345 53.5175H37.9415C38.564 53.5175 39.0733 53.0082 39.0733 52.3858V30.6139C39.0733 29.9915 38.564 29.4822 37.9415 29.4822H29.9345ZM36.8098 51.254H31.0662V31.7457H36.8098V51.254Z" fill="white"/>
<path d="M43.2607 17.613V52.3857C43.2607 53.0082 43.77 53.5175 44.3925 53.5175H52.3995C53.022 53.5175 53.5313 53.0082 53.5313 52.3857V17.613C53.5313 16.9906 53.022 16.4813 52.3995 16.4813H44.3925C43.77 16.4813 43.2607 16.9764 43.2607 17.613ZM45.5242 18.7448H51.2678V51.254H45.5242V18.7448Z" fill="white"/>
<path d="M2.2071 35.5652H2.27783L3.39543 35.4945C13.2699 34.8579 22.7623 31.5051 30.8543 25.8181C38.6208 20.3575 44.7888 12.9587 48.764 4.35753L50.1221 7.93665C50.2919 8.38935 50.7304 8.67229 51.1831 8.67229C51.3104 8.67229 51.4519 8.64399 51.5792 8.60155C52.1592 8.3752 52.4563 7.72445 52.23 7.14444L49.825 0.735963C49.7119 0.453028 49.4997 0.22668 49.2309 0.0993594C48.9621 -0.0279613 48.6509 -0.0279609 48.3679 0.0710663L41.9594 2.50431C41.3794 2.73065 41.0823 3.3814 41.3087 3.96142C41.535 4.54144 42.1858 4.83852 42.7658 4.61217L46.8825 3.04188C43.077 11.4309 37.1071 18.6457 29.5669 23.9508C21.8145 29.3973 12.7181 32.6086 3.25396 33.2169L2.13637 33.2876C1.51391 33.3301 1.03292 33.8676 1.07536 34.4901C1.1178 35.0984 1.62708 35.5652 2.2071 35.5652Z" fill="white"/>
</svg>
