<svg width="58" height="59" viewBox="0 0 58 59" fill="none" xmlns="http://www.w3.org/2000/svg">
<path d="M56.3867 19.5546C55.1401 18.8741 53.2415 19.011 52.0185 20.9211C52.0149 20.9268 52.0112 20.9326 52.0076 20.9384L47.4611 28.3312C46.9134 28.0176 46.2854 27.8785 45.6465 27.9353C44.8455 28.0065 44.1248 28.3799 43.6174 28.9868C43.2929 29.3749 42.2207 30.7055 41.0857 32.1143C40.0076 33.4522 38.893 34.8358 38.5818 35.2079C37.5029 36.4982 36.1266 37.4903 34.6695 38.5407C32.6022 40.0311 30.3414 41.6611 28.9998 44.3196C27.6583 41.6611 25.3975 40.0311 23.3301 38.5407C21.8731 37.4902 20.4968 36.4981 19.4178 35.2079C19.1068 34.836 17.9931 33.4536 16.916 32.1167C15.78 30.7069 14.707 29.375 14.3823 28.9868C13.8748 28.3799 13.1541 28.0065 12.3532 27.9353C11.7139 27.8785 11.0863 28.0178 10.5386 28.3312L5.99209 20.9384C5.98857 20.9326 5.98495 20.9268 5.98121 20.9211C4.75834 19.0112 2.85957 18.8737 1.61302 19.5546C0.136338 20.3612 -0.414813 22.1613 0.331235 23.7417C0.332935 23.7453 0.334635 23.7488 0.336334 23.7524C0.654855 24.4089 1.42968 26.2458 2.327 28.3729C3.58284 31.3497 5.14565 35.0546 6.47004 37.9489C8.19533 41.7195 8.96914 42.7791 11.9899 45.507L16.0652 49.1874V49.5311H15.4024C14.7766 49.5311 14.2693 50.0351 14.2693 50.6569V57.4116C14.2693 58.0334 14.7766 58.5374 15.4024 58.5374H42.5974C43.2231 58.5374 43.7305 58.0334 43.7305 57.4116V50.6569C43.7305 50.0351 43.2231 49.5311 42.5974 49.5311H41.9346V49.1874L46.01 45.507C49.0307 42.7791 49.8045 41.7195 51.5299 37.9489C52.8542 35.0547 54.417 31.35 55.6727 28.3733C56.5701 26.246 57.3452 24.4089 57.6636 23.7524C57.6653 23.7488 57.667 23.7453 57.6687 23.7417C58.4149 22.1613 57.8637 20.3612 56.3867 19.5546ZM17.9606 47.8562L13.5143 43.8408C10.7314 41.3277 10.1262 40.4986 8.53323 37.0171C7.22277 34.1533 5.66722 30.4656 4.41716 27.5025C3.47282 25.2637 2.72632 23.4942 2.38083 22.7809C2.06423 22.1046 2.4351 21.6753 2.7049 21.5279C3.15724 21.2809 3.66499 21.5029 4.06442 22.1221L9.11815 30.3396C9.02534 30.9423 9.1016 31.6908 9.46987 32.6156C10.5274 35.2711 11.8384 37.9234 13.0667 39.8927C13.3964 40.4212 14.0947 40.584 14.6268 40.2565C15.1587 39.929 15.3228 39.2351 14.9932 38.7065C13.8326 36.8458 12.5875 34.3238 11.5772 31.7872C11.1454 30.7029 11.4322 30.4633 11.5402 30.3732C11.7145 30.2277 11.9312 30.1589 12.1515 30.1781C12.3471 30.1954 12.5205 30.2836 12.6396 30.426C12.9512 30.7985 14.0675 32.184 15.147 33.524C16.2804 34.9307 17.3508 36.2594 17.675 36.647C18.9359 38.1548 20.4933 39.2775 21.9995 40.3634C24.9186 42.4678 27.4412 44.2865 27.867 48.5102V49.5313H18.3316V48.6894C18.3316 48.3721 18.1968 48.0697 17.9606 47.8562ZM16.5357 51.7827H27.8669V56.2858H16.5357V51.7827ZM41.4643 56.2858H30.1331V51.7827H41.4643V56.2858ZM55.6191 22.7808C55.2737 23.4942 54.5271 25.264 53.5826 27.503C52.3327 30.4658 50.7771 34.1534 49.4668 37.0169C47.8736 40.4986 47.2686 41.3276 44.4856 43.8407L40.0394 47.8561C39.8031 48.0696 39.6685 48.3719 39.6685 48.6892V49.5311H30.1333V48.5094C30.5592 44.2861 33.0818 42.4675 36.0007 40.3631C37.5068 39.2773 39.0643 38.1546 40.3251 36.6469C40.6495 36.2589 41.7208 34.9293 42.8552 33.5213C43.9339 32.1824 45.0492 30.798 45.3606 30.4257C45.4797 30.2833 45.6531 30.1953 45.8486 30.178C46.0684 30.1583 46.2857 30.2276 46.4601 30.3732C46.568 30.4633 46.8547 30.7028 46.423 31.7871C45.4127 34.3238 44.1677 36.8459 43.0071 38.7065C42.6775 39.235 42.8415 39.9289 43.3733 40.2565C43.9053 40.5838 44.6037 40.4209 44.9334 39.8926C46.1616 37.9234 47.4725 35.2711 48.5303 32.6155C48.8986 31.6907 48.9747 30.9421 48.8819 30.3396L53.936 22.1218C54.3353 21.503 54.8429 21.2809 55.2953 21.5279C55.5649 21.675 55.9358 22.1045 55.6191 22.7808Z" fill="white"/>
<path d="M29 21.6907C31.1685 21.6907 32.9327 19.9379 32.9327 17.7835C32.9327 15.6291 31.1686 13.8762 29 13.8762C26.8314 13.8762 25.0674 15.6289 25.0674 17.7835C25.0674 19.938 26.8314 21.6907 29 21.6907ZM29 16.1278C29.9188 16.1278 30.6665 16.8705 30.6665 17.7835C30.6665 18.6964 29.9188 19.4391 29 19.4391C28.0811 19.4391 27.3336 18.6964 27.3336 17.7835C27.3336 16.8705 28.0811 16.1278 29 16.1278Z" fill="white"/>
<path d="M13.1365 18.9093H13.9117C14.4652 26.3028 20.4254 32.2244 27.867 32.7744V33.5446C27.867 34.1664 28.3743 34.6704 29.0001 34.6704C29.626 34.6704 30.1333 34.1664 30.1333 33.5446V32.7744C37.5749 32.2244 43.535 26.3028 44.0886 18.9093H44.8639C45.4896 18.9093 45.997 18.4053 45.997 17.7835C45.997 17.1617 45.4896 16.6577 44.8639 16.6577H44.0886C43.535 9.26414 37.5749 3.34256 30.1333 2.79261V2.02234C30.1333 1.40056 29.6259 0.896545 29.0001 0.896545C28.3743 0.896545 27.867 1.40056 27.867 2.02234V2.7925C20.4254 3.34256 14.4654 9.26402 13.9117 16.6577H13.1365C12.5107 16.6577 12.0034 17.1617 12.0034 17.7835C12.0034 18.4053 12.5107 18.9093 13.1365 18.9093ZM16.1854 18.9093H19.5356C20.0535 23.2331 23.5151 26.6724 27.8671 27.1868V30.5153C21.6758 29.976 16.7283 25.0605 16.1854 18.9093ZM29.0003 10.565C33.0064 10.565 36.2656 13.8031 36.2656 17.7834C36.2656 21.7635 33.0064 25.0018 29.0003 25.0018C24.9941 25.0018 21.7348 21.7636 21.7348 17.7835C21.7348 13.8032 24.9941 10.565 29.0003 10.565ZM30.1334 30.5153V27.1868C34.4852 26.6723 37.9469 23.233 38.4648 18.9093H41.8151C41.2722 25.0605 36.3246 29.976 30.1334 30.5153ZM41.8151 16.6577H38.4648C37.9469 12.3338 34.4852 8.89454 30.1334 8.38005V5.05152C36.3246 5.59089 41.2722 10.5063 41.8151 16.6577ZM27.8671 5.05152V8.38005C23.5151 8.89454 20.0535 12.3338 19.5356 16.6577H16.1854C16.7283 10.5063 21.6758 5.59089 27.8671 5.05152Z" fill="white"/>
</svg>
