<svg width="59" height="58" viewBox="0 0 59 58" fill="none" xmlns="http://www.w3.org/2000/svg">
<path d="M21.7382 22.9662C21.7315 23.3457 21.8164 23.7213 21.9858 24.0611C22.1552 24.4008 22.404 24.6947 22.7111 24.9178C23.0182 25.1409 23.3747 25.2867 23.7501 25.3427C24.1256 25.3988 24.509 25.3634 24.8679 25.2398L29.4992 23.593L34.1296 25.2398C34.4886 25.3677 34.8733 25.4061 35.2505 25.3518C35.6276 25.2975 35.9859 25.1521 36.2942 24.9282C36.6026 24.7043 36.8517 24.4086 37.02 24.0667C37.1883 23.7249 37.2708 23.3471 37.2603 22.9662L37.1252 18.0527L40.1227 14.1573C40.3551 13.8554 40.5104 13.5014 40.5753 13.126C40.6401 12.7506 40.6124 12.365 40.4947 12.0027C40.3769 11.6403 40.1727 11.3121 39.8996 11.0465C39.6265 10.7809 39.2927 10.5858 38.9273 10.4782L34.2123 9.08802L31.4335 5.03301C31.2181 4.71884 30.9294 4.46187 30.5924 4.28432C30.2553 4.10676 29.8801 4.01398 29.4992 4.01398C29.1183 4.01398 28.7431 4.10676 28.4061 4.28432C28.0691 4.46187 27.7804 4.71884 27.565 5.03301L24.7862 9.08802L20.0712 10.4781C19.7058 10.5857 19.3721 10.7807 19.099 11.0462C18.8259 11.3118 18.6217 11.6399 18.5039 12.0021C18.3862 12.3644 18.3585 12.7499 18.4233 13.1252C18.4881 13.5006 18.6434 13.8545 18.8757 14.1563L21.8732 18.0527L21.7382 22.9662ZM20.436 12.9556C20.3968 12.9079 20.3702 12.851 20.3588 12.7904C20.3473 12.7297 20.3513 12.6671 20.3704 12.6084C20.3895 12.5496 20.4231 12.4967 20.4681 12.4543C20.5131 12.412 20.568 12.3817 20.6278 12.3662L25.6788 10.8771C25.896 10.8134 26.0845 10.6765 26.2123 10.4897L29.1887 6.14626C29.222 6.0941 29.2679 6.05118 29.3222 6.02144C29.3765 5.9917 29.4374 5.97612 29.4992 5.97612C29.5611 5.97612 29.622 5.9917 29.6763 6.02144C29.7305 6.05118 29.7764 6.0941 29.8098 6.14626L32.7861 10.4897C32.914 10.6765 33.1025 10.8134 33.3197 10.8772L38.3707 12.3663C38.4305 12.3819 38.4855 12.4122 38.5305 12.4546C38.5755 12.497 38.6091 12.5501 38.6282 12.6089C38.6473 12.6677 38.6513 12.7304 38.6398 12.7911C38.6284 12.8519 38.6018 12.9088 38.5625 12.9566L35.3515 17.1298C35.2135 17.309 35.1415 17.5304 35.1477 17.7566L35.2924 23.02C35.2963 23.0818 35.2845 23.1436 35.2581 23.1996C35.2317 23.2555 35.1916 23.304 35.1414 23.3403C35.0913 23.3767 35.0329 23.3998 34.9715 23.4075C34.91 23.4152 34.8477 23.4073 34.7901 23.3844L29.829 21.6203C29.6156 21.5453 29.383 21.5453 29.1695 21.6203L24.2075 23.3844C24.15 23.4072 24.0877 23.4151 24.0264 23.4073C23.965 23.3996 23.9066 23.3764 23.8566 23.3401C23.8066 23.3038 23.7666 23.2554 23.7403 23.1994C23.714 23.1435 23.7022 23.0818 23.7061 23.0201L23.8508 17.7566C23.857 17.5305 23.7851 17.3091 23.647 17.1298L20.436 12.9556Z" fill="white"/>
<path d="M56.0786 52.0934H55.0942V35.3581C55.0931 34.3141 54.6778 33.3131 53.9396 32.5749C53.2014 31.8367 52.2005 31.4215 51.1565 31.4203H43.281C42.237 31.4215 41.2361 31.8367 40.4978 32.5749C39.7596 33.3131 39.3444 34.3141 39.3433 35.3581V52.0934H37.3744V31.9914C37.3744 31.7303 37.2707 31.4799 37.0861 31.2953C36.9015 31.1107 36.6511 31.007 36.39 31.007C36.1289 31.007 35.8785 31.1107 35.6939 31.2953C35.5093 31.4799 35.4056 31.7303 35.4056 31.9914V52.0934H23.5924V31.9914C23.5924 31.7303 23.4887 31.4799 23.3041 31.2953C23.1194 31.1107 22.869 31.007 22.608 31.007C22.3469 31.007 22.0965 31.1107 21.9119 31.2953C21.7272 31.4799 21.6235 31.7303 21.6235 31.9914V52.0934H19.6547V38.3114C19.6536 37.2674 19.2383 36.2664 18.5001 35.5282C17.7619 34.79 16.7609 34.3747 15.7169 34.3736H7.84149C6.79748 34.3747 5.79656 34.79 5.05833 35.5282C4.32011 36.2664 3.90488 37.2674 3.90377 38.3114V52.0934H2.91934C2.14198 52.1024 1.39952 52.4175 0.853 52.9704C0.306482 53.5233 -1.29564e-05 54.2693 4.10785e-10 55.0467C1.29572e-05 55.8241 0.306533 56.5702 0.853069 57.1231C1.39961 57.6759 2.14208 57.991 2.91944 58H56.0786C56.856 57.991 57.5984 57.6759 58.145 57.123C58.6915 56.5702 58.998 55.8241 58.998 55.0467C58.998 54.2693 58.6915 53.5232 58.145 52.9703C57.5984 52.4175 56.856 52.1024 56.0786 52.0934ZM41.3121 35.3581C41.3127 34.8361 41.5204 34.3356 41.8895 33.9665C42.2586 33.5974 42.759 33.3898 43.281 33.3892H51.1565C51.6784 33.3898 52.1789 33.5974 52.548 33.9665C52.9171 34.3356 53.1247 34.8361 53.1253 35.3581V52.0934H41.3121V35.3581ZM5.87263 38.3114C5.87323 37.7894 6.08085 37.2889 6.44996 36.9198C6.81906 36.5507 7.3195 36.3431 7.84149 36.3425H15.7169C16.2389 36.3431 16.7394 36.5507 17.1085 36.9198C17.4776 37.2889 17.6852 37.7894 17.6858 38.3114V52.0934H5.87263V38.3114ZM56.0786 56.0311H2.91934C2.661 56.0269 2.41465 55.9214 2.23344 55.7372C2.05223 55.553 1.95068 55.305 1.95068 55.0467C1.95069 54.7883 2.05226 54.5403 2.23348 54.3561C2.41471 54.172 2.66106 54.0664 2.9194 54.0623H56.0786C56.3369 54.0664 56.5833 54.172 56.7645 54.3561C56.9457 54.5403 57.0473 54.7883 57.0473 55.0467C57.0473 55.3051 56.9457 55.5531 56.7645 55.7372C56.5833 55.9214 56.3369 56.0269 56.0786 56.0311Z" fill="white"/>
<path d="M29.4989 31.4204C33.6749 31.4156 37.6784 29.7546 40.6312 26.8018C43.5841 23.8489 45.2451 19.8454 45.2498 15.6695C44.3844 -5.2262 14.6103 -5.22015 13.748 15.6696C13.7529 19.8455 15.4139 23.849 18.3667 26.8018C21.3195 29.7546 25.323 31.4156 29.4989 31.4204ZM29.4989 1.88744C33.1529 1.89153 36.656 3.34488 39.2398 5.92862C41.8235 8.51237 43.2769 12.0155 43.281 15.6695C42.5241 33.9532 16.471 33.9479 15.7169 15.6694C15.721 12.0154 17.1744 8.51231 19.7581 5.92859C22.3419 3.34487 25.845 1.89154 29.4989 1.88744Z" fill="white"/>
</svg>
