<svg width="57" height="39" viewBox="0 0 57 39" fill="none" xmlns="http://www.w3.org/2000/svg">
<path d="M55.8101 6.01129C55.133 3.65945 53.2586 1.81493 50.8442 1.1629C46.3986 5.55943e-05 28.5272 5.58755e-05 28.5272 5.58755e-05C28.5272 5.58755e-05 10.6897 -0.0278388 6.19775 1.1629C3.79588 1.81668 1.91253 3.65945 1.24257 6.01129C0.39978 10.4692 -0.0189423 14.9811 0.000657468 19.5139C-0.00825151 24.0171 0.408689 28.5221 1.24257 32.952C1.91253 35.3039 3.79588 37.1484 6.19775 37.8109C10.6433 38.9737 28.5272 38.9737 28.5272 38.9737C28.5272 38.9737 46.3541 38.9737 50.8442 37.8109C53.2586 37.1484 55.133 35.3056 55.8101 32.952C56.6279 28.5221 57.0271 24.0171 56.9985 19.5139C57.0271 14.9811 56.6368 10.4692 55.8101 6.01129ZM22.8183 27.8596V11.1317L37.6946 19.5139L22.8183 27.8596Z" fill="#2AD571"/>
</svg>
